<mxfile host="65bd71144e">
    <diagram id="MCHEkmtKPDOmf6eplkHN" name="Page-1">
        <mxGraphModel dx="765" dy="1663" grid="1" gridSize="10" guides="1" tooltips="1" connect="1" arrows="1" fold="1" page="1" pageScale="1" pageWidth="850" pageHeight="1100" background="#ffffff" math="0" shadow="1">
            <root>
                <mxCell id="0"/>
                <mxCell id="1" parent="0"/>
                <UserObject label="" mermaidData="{&#xa;  &quot;data&quot;: &quot;classDiagram\n    %% Classes and Interfaces\n\n    class Bulb {\n        +turnOn()\n        +turnOff()\n    }\n\n    class Command {\n        &lt;&lt;interface&gt;&gt;\n        +execute()\n        +undo()\n        +redo()\n    }\n\n    class TurnOn {\n        -Bulb bulb\n        +TurnOn(Bulb bulb)\n        +execute()\n        +undo()\n        +redo()\n    }\n\n    class TurnOff {\n        -Bulb bulb\n        +TurnOff(Bulb bulb)\n        +execute()\n        +undo()\n        +redo()\n    }\n\n    class RemoteControl {\n        -List~Command~ commandHistory\n        -int currentCommandIndex\n        +executeCommand(Command command)\n        +undo()\n        +redo()\n    }\n\n    %% Relationships\n\n    Command &lt;|.. TurnOn : implements\n    Command &lt;|.. TurnOff : implements\n\n    TurnOn --&gt; Bulb : controls\n    TurnOff --&gt; Bulb : controls\n\n    RemoteControl --&gt; Command : stores &amp; executes\n&quot;&#xa;}" id="2">
                    <mxCell style="shape=image;noLabel=1;verticalAlign=top;imageAspect=1;image=data:image/svg+xml,PHN2ZyBhcmlhLXJvbGVkZXNjcmlwdGlvbj0iY2xhc3MiIHJvbGU9ImdyYXBoaWNzLWRvY3VtZW50IGRvY3VtZW50IiB2aWV3Qm94PSIwIDAgNDQ5LjMwNjI3NDQxNDA2MjUgMTAxMy4yMDAwNzMyNDIxODc1IiBzdHlsZT0ibWF4LXdpZHRoOiA0NDkuMzA2Mjc0NDE0MDYyNXB4OyIgY2xhc3M9ImNsYXNzRGlhZ3JhbSIgeG1sbnM9Imh0dHA6Ly93d3cudzMub3JnLzIwMDAvc3ZnIiB3aWR0aD0iMTAwJSIgaWQ9ImdlTWVybWFpZE91dHB1dC0xNzUzMDgyNDE5NjM5Ij48c3R5bGU+I2dlTWVybWFpZE91dHB1dC0xNzUzMDgyNDE5NjM5e2ZvbnQtZmFtaWx5OiJ0cmVidWNoZXQgbXMiLHZlcmRhbmEsYXJpYWwsc2Fucy1zZXJpZjtmb250LXNpemU6MTZweDtmaWxsOiMwMDAwMDA7fSNnZU1lcm1haWRPdXRwdXQtMTc1MzA4MjQxOTYzOSAuZXJyb3ItaWNvbntmaWxsOiM1NTIyMjI7fSNnZU1lcm1haWRPdXRwdXQtMTc1MzA4MjQxOTYzOSAuZXJyb3ItdGV4dHtmaWxsOiM1NTIyMjI7c3Ryb2tlOiM1NTIyMjI7fSNnZU1lcm1haWRPdXRwdXQtMTc1MzA4MjQxOTYzOSAuZWRnZS10aGlja25lc3Mtbm9ybWFse3N0cm9rZS13aWR0aDoxcHg7fSNnZU1lcm1haWRPdXRwdXQtMTc1MzA4MjQxOTYzOSAuZWRnZS10aGlja25lc3MtdGhpY2t7c3Ryb2tlLXdpZHRoOjMuNXB4O30jZ2VNZXJtYWlkT3V0cHV0LTE3NTMwODI0MTk2MzkgLmVkZ2UtcGF0dGVybi1zb2xpZHtzdHJva2UtZGFzaGFycmF5OjA7fSNnZU1lcm1haWRPdXRwdXQtMTc1MzA4MjQxOTYzOSAuZWRnZS10aGlja25lc3MtaW52aXNpYmxle3N0cm9rZS13aWR0aDowO2ZpbGw6bm9uZTt9I2dlTWVybWFpZE91dHB1dC0xNzUzMDgyNDE5NjM5IC5lZGdlLXBhdHRlcm4tZGFzaGVke3N0cm9rZS1kYXNoYXJyYXk6Mzt9I2dlTWVybWFpZE91dHB1dC0xNzUzMDgyNDE5NjM5IC5lZGdlLXBhdHRlcm4tZG90dGVke3N0cm9rZS1kYXNoYXJyYXk6Mjt9I2dlTWVybWFpZE91dHB1dC0xNzUzMDgyNDE5NjM5IC5tYXJrZXJ7ZmlsbDojNjY2O3N0cm9rZTojNjY2O30jZ2VNZXJtYWlkT3V0cHV0LTE3NTMwODI0MTk2MzkgLm1hcmtlci5jcm9zc3tzdHJva2U6IzY2Njt9I2dlTWVybWFpZE91dHB1dC0xNzUzMDgyNDE5NjM5IHN2Z3tmb250LWZhbWlseToidHJlYnVjaGV0IG1zIix2ZXJkYW5hLGFyaWFsLHNhbnMtc2VyaWY7Zm9udC1zaXplOjE2cHg7fSNnZU1lcm1haWRPdXRwdXQtMTc1MzA4MjQxOTYzOSBwe21hcmdpbjowO30jZ2VNZXJtYWlkT3V0cHV0LTE3NTMwODI0MTk2MzkgZy5jbGFzc0dyb3VwIHRleHR7ZmlsbDojOTk5O3N0cm9rZTpub25lO2ZvbnQtZmFtaWx5OiJ0cmVidWNoZXQgbXMiLHZlcmRhbmEsYXJpYWwsc2Fucy1zZXJpZjtmb250LXNpemU6MTBweDt9I2dlTWVybWFpZE91dHB1dC0xNzUzMDgyNDE5NjM5IGcuY2xhc3NHcm91cCB0ZXh0IC50aXRsZXtmb250LXdlaWdodDpib2xkZXI7fSNnZU1lcm1haWRPdXRwdXQtMTc1MzA4MjQxOTYzOSAubm9kZUxhYmVsLCNnZU1lcm1haWRPdXRwdXQtMTc1MzA4MjQxOTYzOSAuZWRnZUxhYmVse2NvbG9yOiMxMTExMTE7fSNnZU1lcm1haWRPdXRwdXQtMTc1MzA4MjQxOTYzOSAuZWRnZUxhYmVsIC5sYWJlbCByZWN0e2ZpbGw6I2VlZTt9I2dlTWVybWFpZE91dHB1dC0xNzUzMDgyNDE5NjM5IC5sYWJlbCB0ZXh0e2ZpbGw6IzExMTExMTt9I2dlTWVybWFpZE91dHB1dC0xNzUzMDgyNDE5NjM5IC5sYWJlbEJrZ3tiYWNrZ3JvdW5kOiNlZWU7fSNnZU1lcm1haWRPdXRwdXQtMTc1MzA4MjQxOTYzOSAuZWRnZUxhYmVsIC5sYWJlbCBzcGFue2JhY2tncm91bmQ6I2VlZTt9I2dlTWVybWFpZE91dHB1dC0xNzUzMDgyNDE5NjM5IC5jbGFzc1RpdGxle2ZvbnQtd2VpZ2h0OmJvbGRlcjt9I2dlTWVybWFpZE91dHB1dC0xNzUzMDgyNDE5NjM5IC5ub2RlIHJlY3QsI2dlTWVybWFpZE91dHB1dC0xNzUzMDgyNDE5NjM5IC5ub2RlIGNpcmNsZSwjZ2VNZXJtYWlkT3V0cHV0LTE3NTMwODI0MTk2MzkgLm5vZGUgZWxsaXBzZSwjZ2VNZXJtYWlkT3V0cHV0LTE3NTMwODI0MTk2MzkgLm5vZGUgcG9seWdvbiwjZ2VNZXJtYWlkT3V0cHV0LTE3NTMwODI0MTk2MzkgLm5vZGUgcGF0aHtmaWxsOiNlZWU7c3Ryb2tlOiM5OTk7c3Ryb2tlLXdpZHRoOjFweDt9I2dlTWVybWFpZE91dHB1dC0xNzUzMDgyNDE5NjM5IC5kaXZpZGVye3N0cm9rZTojOTk5O3N0cm9rZS13aWR0aDoxO30jZ2VNZXJtYWlkT3V0cHV0LTE3NTMwODI0MTk2MzkgZy5jbGlja2FibGV7Y3Vyc29yOnBvaW50ZXI7fSNnZU1lcm1haWRPdXRwdXQtMTc1MzA4MjQxOTYzOSBnLmNsYXNzR3JvdXAgcmVjdHtmaWxsOiNlZWU7c3Ryb2tlOiM5OTk7fSNnZU1lcm1haWRPdXRwdXQtMTc1MzA4MjQxOTYzOSBnLmNsYXNzR3JvdXAgbGluZXtzdHJva2U6Izk5OTtzdHJva2Utd2lkdGg6MTt9I2dlTWVybWFpZE91dHB1dC0xNzUzMDgyNDE5NjM5IC5jbGFzc0xhYmVsIC5ib3h7c3Ryb2tlOm5vbmU7c3Ryb2tlLXdpZHRoOjA7ZmlsbDojZWVlO29wYWNpdHk6MC41O30jZ2VNZXJtYWlkT3V0cHV0LTE3NTMwODI0MTk2MzkgLmNsYXNzTGFiZWwgLmxhYmVse2ZpbGw6Izk5OTtmb250LXNpemU6MTBweDt9I2dlTWVybWFpZE91dHB1dC0xNzUzMDgyNDE5NjM5IC5yZWxhdGlvbntzdHJva2U6IzY2NjtzdHJva2Utd2lkdGg6MTtmaWxsOm5vbmU7fSNnZU1lcm1haWRPdXRwdXQtMTc1MzA4MjQxOTYzOSAuZGFzaGVkLWxpbmV7c3Ryb2tlLWRhc2hhcnJheTozO30jZ2VNZXJtYWlkT3V0cHV0LTE3NTMwODI0MTk2MzkgLmRvdHRlZC1saW5le3N0cm9rZS1kYXNoYXJyYXk6MSAyO30jZ2VNZXJtYWlkT3V0cHV0LTE3NTMwODI0MTk2MzkgI2NvbXBvc2l0aW9uU3RhcnQsI2dlTWVybWFpZE91dHB1dC0xNzUzMDgyNDE5NjM5IC5jb21wb3NpdGlvbntmaWxsOiM2NjYhaW1wb3J0YW50O3N0cm9rZTojNjY2IWltcG9ydGFudDtzdHJva2Utd2lkdGg6MTt9I2dlTWVybWFpZE91dHB1dC0xNzUzMDgyNDE5NjM5ICNjb21wb3NpdGlvbkVuZCwjZ2VNZXJtYWlkT3V0cHV0LTE3NTMwODI0MTk2MzkgLmNvbXBvc2l0aW9ue2ZpbGw6IzY2NiFpbXBvcnRhbnQ7c3Ryb2tlOiM2NjYhaW1wb3J0YW50O3N0cm9rZS13aWR0aDoxO30jZ2VNZXJtYWlkT3V0cHV0LTE3NTMwODI0MTk2MzkgI2RlcGVuZGVuY3lTdGFydCwjZ2VNZXJtYWlkT3V0cHV0LTE3NTMwODI0MTk2MzkgLmRlcGVuZGVuY3l7ZmlsbDojNjY2IWltcG9ydGFudDtzdHJva2U6IzY2NiFpbXBvcnRhbnQ7c3Ryb2tlLXdpZHRoOjE7fSNnZU1lcm1haWRPdXRwdXQtMTc1MzA4MjQxOTYzOSAjZGVwZW5kZW5jeVN0YXJ0LCNnZU1lcm1haWRPdXRwdXQtMTc1MzA4MjQxOTYzOSAuZGVwZW5kZW5jeXtmaWxsOiM2NjYhaW1wb3J0YW50O3N0cm9rZTojNjY2IWltcG9ydGFudDtzdHJva2Utd2lkdGg6MTt9I2dlTWVybWFpZE91dHB1dC0xNzUzMDgyNDE5NjM5ICNleHRlbnNpb25TdGFydCwjZ2VNZXJtYWlkT3V0cHV0LTE3NTMwODI0MTk2MzkgLmV4dGVuc2lvbntmaWxsOnRyYW5zcGFyZW50IWltcG9ydGFudDtzdHJva2U6IzY2NiFpbXBvcnRhbnQ7c3Ryb2tlLXdpZHRoOjE7fSNnZU1lcm1haWRPdXRwdXQtMTc1MzA4MjQxOTYzOSAjZXh0ZW5zaW9uRW5kLCNnZU1lcm1haWRPdXRwdXQtMTc1MzA4MjQxOTYzOSAuZXh0ZW5zaW9ue2ZpbGw6dHJhbnNwYXJlbnQhaW1wb3J0YW50O3N0cm9rZTojNjY2IWltcG9ydGFudDtzdHJva2Utd2lkdGg6MTt9I2dlTWVybWFpZE91dHB1dC0xNzUzMDgyNDE5NjM5ICNhZ2dyZWdhdGlvblN0YXJ0LCNnZU1lcm1haWRPdXRwdXQtMTc1MzA4MjQxOTYzOSAuYWdncmVnYXRpb257ZmlsbDp0cmFuc3BhcmVudCFpbXBvcnRhbnQ7c3Ryb2tlOiM2NjYhaW1wb3J0YW50O3N0cm9rZS13aWR0aDoxO30jZ2VNZXJtYWlkT3V0cHV0LTE3NTMwODI0MTk2MzkgI2FnZ3JlZ2F0aW9uRW5kLCNnZU1lcm1haWRPdXRwdXQtMTc1MzA4MjQxOTYzOSAuYWdncmVnYXRpb257ZmlsbDp0cmFuc3BhcmVudCFpbXBvcnRhbnQ7c3Ryb2tlOiM2NjYhaW1wb3J0YW50O3N0cm9rZS13aWR0aDoxO30jZ2VNZXJtYWlkT3V0cHV0LTE3NTMwODI0MTk2MzkgI2xvbGxpcG9wU3RhcnQsI2dlTWVybWFpZE91dHB1dC0xNzUzMDgyNDE5NjM5IC5sb2xsaXBvcHtmaWxsOiNlZWUhaW1wb3J0YW50O3N0cm9rZTojNjY2IWltcG9ydGFudDtzdHJva2Utd2lkdGg6MTt9I2dlTWVybWFpZE91dHB1dC0xNzUzMDgyNDE5NjM5ICNsb2xsaXBvcEVuZCwjZ2VNZXJtYWlkT3V0cHV0LTE3NTMwODI0MTk2MzkgLmxvbGxpcG9we2ZpbGw6I2VlZSFpbXBvcnRhbnQ7c3Ryb2tlOiM2NjYhaW1wb3J0YW50O3N0cm9rZS13aWR0aDoxO30jZ2VNZXJtYWlkT3V0cHV0LTE3NTMwODI0MTk2MzkgLmVkZ2VUZXJtaW5hbHN7Zm9udC1zaXplOjExcHg7bGluZS1oZWlnaHQ6aW5pdGlhbDt9I2dlTWVybWFpZE91dHB1dC0xNzUzMDgyNDE5NjM5IC5jbGFzc1RpdGxlVGV4dHt0ZXh0LWFuY2hvcjptaWRkbGU7Zm9udC1zaXplOjE4cHg7ZmlsbDojMDAwMDAwO30jZ2VNZXJtYWlkT3V0cHV0LTE3NTMwODI0MTk2MzkgOnJvb3R7LS1tZXJtYWlkLWZvbnQtZmFtaWx5OiJ0cmVidWNoZXQgbXMiLHZlcmRhbmEsYXJpYWwsc2Fucy1zZXJpZjt9PC9zdHlsZT48Zz48ZGVmcz48bWFya2VyIG9yaWVudD0iYXV0byIgbWFya2VySGVpZ2h0PSIyNDAiIG1hcmtlcldpZHRoPSIxOTAiIHJlZlk9IjciIHJlZlg9IjE4IiBjbGFzcz0ibWFya2VyIGFnZ3JlZ2F0aW9uIGNsYXNzIiBpZD0iZ2VNZXJtYWlkT3V0cHV0LTE3NTMwODI0MTk2MzlfY2xhc3MtYWdncmVnYXRpb25TdGFydCI+PHBhdGggZD0iTSAxOCw3IEw5LDEzIEwxLDcgTDksMSBaIj48L3BhdGg+PC9tYXJrZXI+PC9kZWZzPjxkZWZzPjxtYXJrZXIgb3JpZW50PSJhdXRvIiBtYXJrZXJIZWlnaHQ9IjI4IiBtYXJrZXJXaWR0aD0iMjAiIHJlZlk9IjciIHJlZlg9IjEiIGNsYXNzPSJtYXJrZXIgYWdncmVnYXRpb24gY2xhc3MiIGlkPSJnZU1lcm1haWRPdXRwdXQtMTc1MzA4MjQxOTYzOV9jbGFzcy1hZ2dyZWdhdGlvbkVuZCI+PHBhdGggZD0iTSAxOCw3IEw5LDEzIEwxLDcgTDksMSBaIj48L3BhdGg+PC9tYXJrZXI+PC9kZWZzPjxkZWZzPjxtYXJrZXIgb3JpZW50PSJhdXRvIiBtYXJrZXJIZWlnaHQ9IjI0MCIgbWFya2VyV2lkdGg9IjE5MCIgcmVmWT0iNyIgcmVmWD0iMTgiIGNsYXNzPSJtYXJrZXIgZXh0ZW5zaW9uIGNsYXNzIiBpZD0iZ2VNZXJtYWlkT3V0cHV0LTE3NTMwODI0MTk2MzlfY2xhc3MtZXh0ZW5zaW9uU3RhcnQiPjxwYXRoIGQ9Ik0gMSw3IEwxOCwxMyBWIDEgWiI+PC9wYXRoPjwvbWFya2VyPjwvZGVmcz48ZGVmcz48bWFya2VyIG9yaWVudD0iYXV0byIgbWFya2VySGVpZ2h0PSIyOCIgbWFya2VyV2lkdGg9IjIwIiByZWZZPSI3IiByZWZYPSIxIiBjbGFzcz0ibWFya2VyIGV4dGVuc2lvbiBjbGFzcyIgaWQ9ImdlTWVybWFpZE91dHB1dC0xNzUzMDgyNDE5NjM5X2NsYXNzLWV4dGVuc2lvbkVuZCI+PHBhdGggZD0iTSAxLDEgViAxMyBMMTgsNyBaIj48L3BhdGg+PC9tYXJrZXI+PC9kZWZzPjxkZWZzPjxtYXJrZXIgb3JpZW50PSJhdXRvIiBtYXJrZXJIZWlnaHQ9IjI0MCIgbWFya2VyV2lkdGg9IjE5MCIgcmVmWT0iNyIgcmVmWD0iMTgiIGNsYXNzPSJtYXJrZXIgY29tcG9zaXRpb24gY2xhc3MiIGlkPSJnZU1lcm1haWRPdXRwdXQtMTc1MzA4MjQxOTYzOV9jbGFzcy1jb21wb3NpdGlvblN0YXJ0Ij48cGF0aCBkPSJNIDE4LDcgTDksMTMgTDEsNyBMOSwxIFoiPjwvcGF0aD48L21hcmtlcj48L2RlZnM+PGRlZnM+PG1hcmtlciBvcmllbnQ9ImF1dG8iIG1hcmtlckhlaWdodD0iMjgiIG1hcmtlcldpZHRoPSIyMCIgcmVmWT0iNyIgcmVmWD0iMSIgY2xhc3M9Im1hcmtlciBjb21wb3NpdGlvbiBjbGFzcyIgaWQ9ImdlTWVybWFpZE91dHB1dC0xNzUzMDgyNDE5NjM5X2NsYXNzLWNvbXBvc2l0aW9uRW5kIj48cGF0aCBkPSJNIDE4LDcgTDksMTMgTDEsNyBMOSwxIFoiPjwvcGF0aD48L21hcmtlcj48L2RlZnM+PGRlZnM+PG1hcmtlciBvcmllbnQ9ImF1dG8iIG1hcmtlckhlaWdodD0iMjQwIiBtYXJrZXJXaWR0aD0iMTkwIiByZWZZPSI3IiByZWZYPSI2IiBjbGFzcz0ibWFya2VyIGRlcGVuZGVuY3kgY2xhc3MiIGlkPSJnZU1lcm1haWRPdXRwdXQtMTc1MzA4MjQxOTYzOV9jbGFzcy1kZXBlbmRlbmN5U3RhcnQiPjxwYXRoIGQ9Ik0gNSw3IEw5LDEzIEwxLDcgTDksMSBaIj48L3BhdGg+PC9tYXJrZXI+PC9kZWZzPjxkZWZzPjxtYXJrZXIgb3JpZW50PSJhdXRvIiBtYXJrZXJIZWlnaHQ9IjI4IiBtYXJrZXJXaWR0aD0iMjAiIHJlZlk9IjciIHJlZlg9IjEzIiBjbGFzcz0ibWFya2VyIGRlcGVuZGVuY3kgY2xhc3MiIGlkPSJnZU1lcm1haWRPdXRwdXQtMTc1MzA4MjQxOTYzOV9jbGFzcy1kZXBlbmRlbmN5RW5kIj48cGF0aCBkPSJNIDE4LDcgTDksMTMgTDE0LDcgTDksMSBaIj48L3BhdGg+PC9tYXJrZXI+PC9kZWZzPjxkZWZzPjxtYXJrZXIgb3JpZW50PSJhdXRvIiBtYXJrZXJIZWlnaHQ9IjI0MCIgbWFya2VyV2lkdGg9IjE5MCIgcmVmWT0iNyIgcmVmWD0iMTMiIGNsYXNzPSJtYXJrZXIgbG9sbGlwb3AgY2xhc3MiIGlkPSJnZU1lcm1haWRPdXRwdXQtMTc1MzA4MjQxOTYzOV9jbGFzcy1sb2xsaXBvcFN0YXJ0Ij48Y2lyY2xlIHI9IjYiIGN5PSI3IiBjeD0iNyIgZmlsbD0idHJhbnNwYXJlbnQiIHN0cm9rZT0iYmxhY2siPjwvY2lyY2xlPjwvbWFya2VyPjwvZGVmcz48ZGVmcz48bWFya2VyIG9yaWVudD0iYXV0byIgbWFya2VySGVpZ2h0PSIyNDAiIG1hcmtlcldpZHRoPSIxOTAiIHJlZlk9IjciIHJlZlg9IjEiIGNsYXNzPSJtYXJrZXIgbG9sbGlwb3AgY2xhc3MiIGlkPSJnZU1lcm1haWRPdXRwdXQtMTc1MzA4MjQxOTYzOV9jbGFzcy1sb2xsaXBvcEVuZCI+PGNpcmNsZSByPSI2IiBjeT0iNyIgY3g9IjciIGZpbGw9InRyYW5zcGFyZW50IiBzdHJva2U9ImJsYWNrIj48L2NpcmNsZT48L21hcmtlcj48L2RlZnM+PGcgY2xhc3M9InJvb3QiPjxnIGNsYXNzPSJjbHVzdGVycyI+PC9nPjxnIGNsYXNzPSJlZGdlUGF0aHMiPjxwYXRoIG1hcmtlci1zdGFydD0idXJsKCNnZU1lcm1haWRPdXRwdXQtMTc1MzA4MjQxOTYzOV9jbGFzcy1leHRlbnNpb25TdGFydCkiIHN0eWxlPSI7IiBjbGFzcz0iZWRnZS10aGlja25lc3Mtbm9ybWFsIGVkZ2UtcGF0dGVybi1kYXNoZWQgcmVsYXRpb24iIGlkPSJpZF9Db21tYW5kX1R1cm5Pbl8xIiBkPSJNMTQwLjMyNiw0ODguNTYxTDEzNC4wNjQsNDk1LjU2OEMxMjcuODAzLDUwMi41NzQsMTE1LjI3OSw1MTYuNTg3LDEwOS4wMTgsNTI5LjYyN0MxMDIuNzU2LDU0Mi42NjcsMTAyLjc1Niw1NTQuNzMzLDEwMi43NTYsNTYwLjc2N0wxMDIuNzU2LDU2Ni44Ij48L3BhdGg+PHBhdGggbWFya2VyLXN0YXJ0PSJ1cmwoI2dlTWVybWFpZE91dHB1dC0xNzUzMDgyNDE5NjM5X2NsYXNzLWV4dGVuc2lvblN0YXJ0KSIgc3R5bGU9IjsiIGNsYXNzPSJlZGdlLXRoaWNrbmVzcy1ub3JtYWwgZWRnZS1wYXR0ZXJuLWRhc2hlZCByZWxhdGlvbiIgaWQ9ImlkX0NvbW1hbmRfVHVybk9mZl8yIiBkPSJNMzA2Ljg0LDQ4OC41NjFMMzEzLjEwMSw0OTUuNTY4QzMxOS4zNjMsNTAyLjU3NCwzMzEuODg2LDUxNi41ODcsMzM4LjE0OCw1MjkuNjI3QzM0NC40MDksNTQyLjY2NywzNDQuNDA5LDU1NC43MzMsMzQ0LjQwOSw1NjAuNzY3TDM0NC40MDksNTY2LjgiPjwvcGF0aD48cGF0aCBtYXJrZXItZW5kPSJ1cmwoI2dlTWVybWFpZE91dHB1dC0xNzUzMDgyNDE5NjM5X2NsYXNzLWRlcGVuZGVuY3lFbmQpIiBzdHlsZT0iOyIgY2xhc3M9ImVkZ2UtdGhpY2tuZXNzLW5vcm1hbCBlZGdlLXBhdHRlcm4tc29saWQgcmVsYXRpb24iIGlkPSJpZF9UdXJuT25fQnVsYl8zIiBkPSJNMTAyLjc1Niw3ODIuOEwxMDIuNzU2LDc4OC44MzNDMTAyLjc1Niw3OTQuODY3LDEwMi43NTYsODA2LjkzMywxMTIuNzE3LDgyMi4xMzNDMTIyLjY3Nyw4MzcuMzMzLDE0Mi41OTcsODU1LjY2NywxNTIuNTU4LDg2NC44MzRMMTYyLjUxOCw4NzQiPjwvcGF0aD48cGF0aCBtYXJrZXItZW5kPSJ1cmwoI2dlTWVybWFpZE91dHB1dC0xNzUzMDgyNDE5NjM5X2NsYXNzLWRlcGVuZGVuY3lFbmQpIiBzdHlsZT0iOyIgY2xhc3M9ImVkZ2UtdGhpY2tuZXNzLW5vcm1hbCBlZGdlLXBhdHRlcm4tc29saWQgcmVsYXRpb24iIGlkPSJpZF9UdXJuT2ZmX0J1bGJfNCIgZD0iTTM0NC40MDksNzgyLjhMMzQ0LjQwOSw3ODguODMzQzM0NC40MDksNzk0Ljg2NywzNDQuNDA5LDgwNi45MzMsMzM0LjQ0OSw4MjIuMTMzQzMyNC40ODksODM3LjMzMywzMDQuNTY4LDg1NS42NjcsMjk0LjYwOCw4NjQuODM0TDI4NC42NDgsODc0Ij48L3BhdGg+PHBhdGggbWFya2VyLWVuZD0idXJsKCNnZU1lcm1haWRPdXRwdXQtMTc1MzA4MjQxOTYzOV9jbGFzcy1kZXBlbmRlbmN5RW5kKSIgc3R5bGU9IjsiIGNsYXNzPSJlZGdlLXRoaWNrbmVzcy1ub3JtYWwgZWRnZS1wYXR0ZXJuLXNvbGlkIHJlbGF0aW9uIiBpZD0iaWRfUmVtb3RlQ29udHJvbF9Db21tYW5kXzUiIGQ9Ik0yMjMuNTgzLDIyNEwyMjMuNTgzLDIzMC4wMzNDMjIzLjU4MywyMzYuMDY3LDIyMy41ODMsMjQ4LjEzMywyMjMuNTgzLDI1OS4yQzIyMy41ODMsMjcwLjI2NywyMjMuNTgzLDI4MC4zMzMsMjIzLjU4MywyODUuMzY3TDIyMy41ODMsMjkwLjQiPjwvcGF0aD48L2c+PGcgY2xhc3M9ImVkZ2VMYWJlbHMiPjxnIHRyYW5zZm9ybT0idHJhbnNsYXRlKDEwMi43NTYyNDg0NzQxMjExLCA1MzAuNTk5OTk5NDI3Nzk1NCkiIGNsYXNzPSJlZGdlTGFiZWwiPjxnIHRyYW5zZm9ybT0idHJhbnNsYXRlKC00My44ODc1MDA3NjI5Mzk0NSwgLTExLjE5OTk5OTgwOTI2NTEzNykiIGNsYXNzPSJsYWJlbCI+PGc+PHJlY3QgaGVpZ2h0PSIyMi4zOTk5OTk2MTg1MzAyNzMiIHdpZHRoPSI4Ny43NzUwMDE1MjU4Nzg5IiB5PSItMS4xOTk5OTk5ODgwNzkwNzEiIHg9Ii0yIiBzdHlsZT0iO2Rpc3BsYXk6IGlubGluZS1ibG9jayIgY2xhc3M9ImJhY2tncm91bmQiPjwvcmVjdD48dGV4dCBzdHlsZT0iO2Rpc3BsYXk6IGlubGluZS1ibG9jayIgeT0iLTEwLjEiPjx0c3BhbiBkeT0iMS4xZW0iIHk9Ii0wLjFlbSIgeD0iMCIgY2xhc3M9InRleHQtb3V0ZXItdHNwYW4iPjx0c3BhbiBmb250LXdlaWdodD0ibm9ybWFsIiBjbGFzcz0idGV4dC1pbm5lci10c3BhbiIgZm9udC1zdHlsZT0ibm9ybWFsIj5pbXBsZW1lbnRzPC90c3Bhbj48L3RzcGFuPjwvdGV4dD48L2c+PC9nPjwvZz48ZyB0cmFuc2Zvcm09InRyYW5zbGF0ZSgzNDQuNDA5Mzc4MDUxNzU3OCwgNTMwLjU5OTk5OTQyNzc5NTQpIiBjbGFzcz0iZWRnZUxhYmVsIj48ZyB0cmFuc2Zvcm09InRyYW5zbGF0ZSgtNDMuODg3NTAwNzYyOTM5NDUsIC0xMS4xOTk5OTk4MDkyNjUxMzcpIiBjbGFzcz0ibGFiZWwiPjxnPjxyZWN0IGhlaWdodD0iMjIuMzk5OTk5NjE4NTMwMjczIiB3aWR0aD0iODcuNzc1MDAxNTI1ODc4OSIgeT0iLTEuMTk5OTk5OTg4MDc5MDcxIiB4PSItMiIgc3R5bGU9IjtkaXNwbGF5OiBpbmxpbmUtYmxvY2siIGNsYXNzPSJiYWNrZ3JvdW5kIj48L3JlY3Q+PHRleHQgc3R5bGU9IjtkaXNwbGF5OiBpbmxpbmUtYmxvY2siIHk9Ii0xMC4xIj48dHNwYW4gZHk9IjEuMWVtIiB5PSItMC4xZW0iIHg9IjAiIGNsYXNzPSJ0ZXh0LW91dGVyLXRzcGFuIj48dHNwYW4gZm9udC13ZWlnaHQ9Im5vcm1hbCIgY2xhc3M9InRleHQtaW5uZXItdHNwYW4iIGZvbnQtc3R5bGU9Im5vcm1hbCI+aW1wbGVtZW50czwvdHNwYW4+PC90c3Bhbj48L3RleHQ+PC9nPjwvZz48L2c+PGcgdHJhbnNmb3JtPSJ0cmFuc2xhdGUoMTAyLjc1NjI0ODQ3NDEyMTEsIDgxOC45OTk5OTkwNDYzMjU3KSIgY2xhc3M9ImVkZ2VMYWJlbCI+PGcgdHJhbnNmb3JtPSJ0cmFuc2xhdGUoLTMwLjc5OTk5OTIzNzA2MDU0NywgLTExLjE5OTk5OTgwOTI2NTEzNykiIGNsYXNzPSJsYWJlbCI+PGc+PHJlY3QgaGVpZ2h0PSIyMi4zOTk5OTk2MTg1MzAyNzMiIHdpZHRoPSI2MS42MDAwMDIyODg4MTgzNiIgeT0iLTEuMTk5OTk5OTg4MDc5MDcxIiB4PSItMiIgc3R5bGU9IjtkaXNwbGF5OiBpbmxpbmUtYmxvY2siIGNsYXNzPSJiYWNrZ3JvdW5kIj48L3JlY3Q+PHRleHQgc3R5bGU9IjtkaXNwbGF5OiBpbmxpbmUtYmxvY2siIHk9Ii0xMC4xIj48dHNwYW4gZHk9IjEuMWVtIiB5PSItMC4xZW0iIHg9IjAiIGNsYXNzPSJ0ZXh0LW91dGVyLXRzcGFuIj48dHNwYW4gZm9udC13ZWlnaHQ9Im5vcm1hbCIgY2xhc3M9InRleHQtaW5uZXItdHNwYW4iIGZvbnQtc3R5bGU9Im5vcm1hbCI+Y29udHJvbHM8L3RzcGFuPjwvdHNwYW4+PC90ZXh0PjwvZz48L2c+PC9nPjxnIHRyYW5zZm9ybT0idHJhbnNsYXRlKDM0NC40MDkzNzgwNTE3NTc4LCA4MTguOTk5OTk5MDQ2MzI1NykiIGNsYXNzPSJlZGdlTGFiZWwiPjxnIHRyYW5zZm9ybT0idHJhbnNsYXRlKC0zMC43OTk5OTkyMzcwNjA1NDcsIC0xMS4xOTk5OTk4MDkyNjUxMzcpIiBjbGFzcz0ibGFiZWwiPjxnPjxyZWN0IGhlaWdodD0iMjIuMzk5OTk5NjE4NTMwMjczIiB3aWR0aD0iNjEuNjAwMDAyMjg4ODE4MzYiIHk9Ii0xLjE5OTk5OTk4ODA3OTA3MSIgeD0iLTIiIHN0eWxlPSI7ZGlzcGxheTogaW5saW5lLWJsb2NrIiBjbGFzcz0iYmFja2dyb3VuZCI+PC9yZWN0Pjx0ZXh0IHN0eWxlPSI7ZGlzcGxheTogaW5saW5lLWJsb2NrIiB5PSItMTAuMSI+PHRzcGFuIGR5PSIxLjFlbSIgeT0iLTAuMWVtIiB4PSIwIiBjbGFzcz0idGV4dC1vdXRlci10c3BhbiI+PHRzcGFuIGZvbnQtd2VpZ2h0PSJub3JtYWwiIGNsYXNzPSJ0ZXh0LWlubmVyLXRzcGFuIiBmb250LXN0eWxlPSJub3JtYWwiPmNvbnRyb2xzPC90c3Bhbj48L3RzcGFuPjwvdGV4dD48L2c+PC9nPjwvZz48ZyB0cmFuc2Zvcm09InRyYW5zbGF0ZSgyMjMuNTgyODEzMjYyOTM5NDUsIDI2MC4xOTk5OTk4MDkyNjUxNCkiIGNsYXNzPSJlZGdlTGFiZWwiPjxnIHRyYW5zZm9ybT0idHJhbnNsYXRlKC04My45Njg3NSwgLTExLjE5OTk5OTgwOTI2NTEzNykiIGNsYXNzPSJsYWJlbCI+PGc+PHJlY3QgaGVpZ2h0PSIyMi4zOTk5OTk2MTg1MzAyNzMiIHdpZHRoPSIxNjcuOTM3NSIgeT0iLTEuMTk5OTk5OTg4MDc5MDcxIiB4PSItMiIgc3R5bGU9IjtkaXNwbGF5OiBpbmxpbmUtYmxvY2siIGNsYXNzPSJiYWNrZ3JvdW5kIj48L3JlY3Q+PHRleHQgc3R5bGU9IjtkaXNwbGF5OiBpbmxpbmUtYmxvY2siIHk9Ii0xMC4xIj48dHNwYW4gZHk9IjEuMWVtIiB5PSItMC4xZW0iIHg9IjAiIGNsYXNzPSJ0ZXh0LW91dGVyLXRzcGFuIj48dHNwYW4gZm9udC13ZWlnaHQ9Im5vcm1hbCIgY2xhc3M9InRleHQtaW5uZXItdHNwYW4iIGZvbnQtc3R5bGU9Im5vcm1hbCI+c3RvcmVzPC90c3Bhbj48dHNwYW4gZm9udC13ZWlnaHQ9Im5vcm1hbCIgY2xhc3M9InRleHQtaW5uZXItdHNwYW4iIGZvbnQtc3R5bGU9Im5vcm1hbCI+ICZhbXA7YW1wOzwvdHNwYW4+PHRzcGFuIGZvbnQtd2VpZ2h0PSJub3JtYWwiIGNsYXNzPSJ0ZXh0LWlubmVyLXRzcGFuIiBmb250LXN0eWxlPSJub3JtYWwiPiBleGVjdXRlczwvdHNwYW4+PC90c3Bhbj48L3RleHQ+PC9nPjwvZz48L2c+PC9nPjxnIGNsYXNzPSJub2RlcyI+PGcgdHJhbnNmb3JtPSJ0cmFuc2xhdGUoMjIzLjU4MjgxMzI2MjkzOTQ1LCA5MzAuMTk5OTk4ODU1NTkwOCkiIGlkPSJjbGFzc0lkLUJ1bGItMCIgY2xhc3M9Im5vZGUgZGVmYXVsdCI+PGcgY2xhc3M9ImJhc2ljIGxhYmVsLWNvbnRhaW5lciI+PHBhdGggc3R5bGU9IiIgZmlsbD0iI2VlZSIgc3Ryb2tlLXdpZHRoPSIwIiBzdHJva2U9Im5vbmUiIGQ9Ik0tNTYuNjUwMDAxNTI1ODc4OTA2IC03NSBMNTYuNjUwMDAxNTI1ODc4OTA2IC03NSBMNTYuNjUwMDAxNTI1ODc4OTA2IDc1IEwtNTYuNjUwMDAxNTI1ODc4OTA2IDc1Ij48L3BhdGg+PHBhdGggc3R5bGU9IiIgZmlsbD0ibm9uZSIgc3Ryb2tlLXdpZHRoPSIxLjMiIHN0cm9rZT0iIzk5OSIgZD0iTS01Ni42NTAwMDE1MjU4Nzg5MDYgLTc1IEMtMjkuNDAwNDA2MTY1NDY5MTE0IC03NSwgLTIuMTUwODEwODA1MDU5MzIyIC03NSwgNTYuNjUwMDAxNTI1ODc4OTA2IC03NSBNLTU2LjY1MDAwMTUyNTg3ODkwNiAtNzUgQy0zMC43Mzg2MjM2NTE3NTY3ODYgLTc1LCAtNC44MjcyNDU3Nzc2MzQ2NjYgLTc1LCA1Ni42NTAwMDE1MjU4Nzg5MDYgLTc1IE01Ni42NTAwMDE1MjU4Nzg5MDYgLTc1IEM1Ni42NTAwMDE1MjU4Nzg5MDYgLTI2Ljk0ODc3NzMxNDg1MTI1LCA1Ni42NTAwMDE1MjU4Nzg5MDYgMjEuMTAyNDQ1MzcwMjk3NTAyLCA1Ni42NTAwMDE1MjU4Nzg5MDYgNzUgTTU2LjY1MDAwMTUyNTg3ODkwNiAtNzUgQzU2LjY1MDAwMTUyNTg3ODkwNiAtMjAuMjA4NDg2NzcxNjUzMzU1LCA1Ni42NTAwMDE1MjU4Nzg5MDYgMzQuNTgzMDI2NDU2NjkzMjksIDU2LjY1MDAwMTUyNTg3ODkwNiA3NSBNNTYuNjUwMDAxNTI1ODc4OTA2IDc1IEMxMS41MzYwNzQyNDkxNjcyNjQgNzUsIC0zMy41Nzc4NTMwMjc1NDQzOCA3NSwgLTU2LjY1MDAwMTUyNTg3ODkwNiA3NSBNNTYuNjUwMDAxNTI1ODc4OTA2IDc1IEMyNS4xNjM0MjY0ODYyNTU5NiA3NSwgLTYuMzIzMTQ4NTUzMzY2OTg0IDc1LCAtNTYuNjUwMDAxNTI1ODc4OTA2IDc1IE0tNTYuNjUwMDAxNTI1ODc4OTA2IDc1IEMtNTYuNjUwMDAxNTI1ODc4OTA2IDI3LjM4NTg2Mjg2MTUwNzE5MiwgLTU2LjY1MDAwMTUyNTg3ODkwNiAtMjAuMjI4Mjc0Mjc2OTg1NjE2LCAtNTYuNjUwMDAxNTI1ODc4OTA2IC03NSBNLTU2LjY1MDAwMTUyNTg3ODkwNiA3NSBDLTU2LjY1MDAwMTUyNTg3ODkwNiAyMS42NTY5Mzk4OTYyMjA1NzgsIC01Ni42NTAwMDE1MjU4Nzg5MDYgLTMxLjY4NjEyMDIwNzU1ODg0NCwgLTU2LjY1MDAwMTUyNTg3ODkwNiAtNzUiPjwvcGF0aD48L2c+PGcgdHJhbnNmb3JtPSJ0cmFuc2xhdGUoMCwgLTUxKSIgY2xhc3M9ImFubm90YXRpb24tZ3JvdXAgdGV4dCI+PC9nPjxnIHRyYW5zZm9ybT0idHJhbnNsYXRlKC0xNi41LCAtNTEpIiBjbGFzcz0ibGFiZWwtZ3JvdXAgdGV4dCI+PGcgdHJhbnNmb3JtPSJ0cmFuc2xhdGUoMCwtMTIpIiBzdHlsZT0iZm9udC13ZWlnaHQ6IGJvbGRlciIgY2xhc3M9ImxhYmVsIj48Zm9yZWlnbk9iamVjdCBoZWlnaHQ9IjI0IiB3aWR0aD0iMzMiPjxkaXYgc3R5bGU9ImRpc3BsYXk6IHRhYmxlLWNlbGw7IHdoaXRlLXNwYWNlOiBub3dyYXA7IGxpbmUtaGVpZ2h0OiAxLjU7IG1heC13aWR0aDogODJweDsgdGV4dC1hbGlnbjogY2VudGVyOyIgeG1sbnM9Imh0dHA6Ly93d3cudzMub3JnLzE5OTkveGh0bWwiPjxzcGFuIHN0eWxlPSIiIGNsYXNzPSJub2RlTGFiZWwgbWFya2Rvd24tbm9kZS1sYWJlbCI+PHA+QnVsYjwvcD48L3NwYW4+PC9kaXY+PC9mb3JlaWduT2JqZWN0PjwvZz48L2c+PGcgdHJhbnNmb3JtPSJ0cmFuc2xhdGUoLTQ0LjY1MDAwMTUyNTg3ODkwNiwgLTMpIiBjbGFzcz0ibWVtYmVycy1ncm91cCB0ZXh0Ij48L2c+PGcgdHJhbnNmb3JtPSJ0cmFuc2xhdGUoLTQ0LjY1MDAwMTUyNTg3ODkwNiwgMjcpIiBjbGFzcz0ibWV0aG9kcy1ncm91cCB0ZXh0Ij48ZyB0cmFuc2Zvcm09InRyYW5zbGF0ZSgwLC0xMikiIHN0eWxlPSIiIGNsYXNzPSJsYWJlbCI+PGZvcmVpZ25PYmplY3QgaGVpZ2h0PSIyNCIgd2lkdGg9IjY5LjcxMjUwMTUyNTg3ODkiPjxkaXYgc3R5bGU9ImRpc3BsYXk6IHRhYmxlLWNlbGw7IHdoaXRlLXNwYWNlOiBub3dyYXA7IGxpbmUtaGVpZ2h0OiAxLjU7IG1heC13aWR0aDogMTI4cHg7IHRleHQtYWxpZ246IGNlbnRlcjsiIHhtbG5zPSJodHRwOi8vd3d3LnczLm9yZy8xOTk5L3hodG1sIj48c3BhbiBzdHlsZT0iIiBjbGFzcz0ibm9kZUxhYmVsIG1hcmtkb3duLW5vZGUtbGFiZWwiPjxwPit0dXJuT24oKTwvcD48L3NwYW4+PC9kaXY+PC9mb3JlaWduT2JqZWN0PjwvZz48ZyB0cmFuc2Zvcm09InRyYW5zbGF0ZSgwLDEyKSIgc3R5bGU9IiIgY2xhc3M9ImxhYmVsIj48Zm9yZWlnbk9iamVjdCBoZWlnaHQ9IjI0IiB3aWR0aD0iNzIuODAwMDAzMDUxNzU3ODEiPjxkaXYgc3R5bGU9ImRpc3BsYXk6IHRhYmxlLWNlbGw7IHdoaXRlLXNwYWNlOiBub3dyYXA7IGxpbmUtaGVpZ2h0OiAxLjU7IG1heC13aWR0aDogMTI5cHg7IHRleHQtYWxpZ246IGNlbnRlcjsiIHhtbG5zPSJodHRwOi8vd3d3LnczLm9yZy8xOTk5L3hodG1sIj48c3BhbiBzdHlsZT0iIiBjbGFzcz0ibm9kZUxhYmVsIG1hcmtkb3duLW5vZGUtbGFiZWwiPjxwPit0dXJuT2ZmKCk8L3A+PC9zcGFuPjwvZGl2PjwvZm9yZWlnbk9iamVjdD48L2c+PC9nPjxnIHN0eWxlPSIiIGNsYXNzPSJkaXZpZGVyIj48cGF0aCBzdHlsZT0iIiBmaWxsPSJub25lIiBzdHJva2Utd2lkdGg9IjEuMyIgc3Ryb2tlPSIjOTk5IiBkPSJNLTU2LjY1MDAwMTUyNTg3ODkwNiAtMjcgQy0yMS42NjY3MjgzMDEwMjI5MDcgLTI3LCAxMy4zMTY1NDQ5MjM4MzMwOTIgLTI3LCA1Ni42NTAwMDE1MjU4Nzg5MDYgLTI3IE0tNTYuNjUwMDAxNTI1ODc4OTA2IC0yNyBDLTEzLjUxMjQzNzAwNzA4MzUyIC0yNywgMjkuNjI1MTI3NTExNzExODY3IC0yNywgNTYuNjUwMDAxNTI1ODc4OTA2IC0yNyI+PC9wYXRoPjwvZz48ZyBzdHlsZT0iIiBjbGFzcz0iZGl2aWRlciI+PHBhdGggc3R5bGU9IiIgZmlsbD0ibm9uZSIgc3Ryb2tlLXdpZHRoPSIxLjMiIHN0cm9rZT0iIzk5OSIgZD0iTS01Ni42NTAwMDE1MjU4Nzg5MDYgLTMgQy0xNS45NTU1OTE4NjY0MTMwNDQgLTMsIDI0LjczODgxNzc5MzA1MjgxNyAtMywgNTYuNjUwMDAxNTI1ODc4OTA2IC0zIE0tNTYuNjUwMDAxNTI1ODc4OTA2IC0zIEMtMzAuOTUxODQ3NTE5NzIzODggLTMsIC01LjI1MzY5MzUxMzU2ODg1NSAtMywgNTYuNjUwMDAxNTI1ODc4OTA2IC0zIj48L3BhdGg+PC9nPjwvZz48ZyB0cmFuc2Zvcm09InRyYW5zbGF0ZSgyMjMuNTgyODEzMjYyOTM5NDUsIDM5NS4zOTk5OTk2MTg1MzAzKSIgaWQ9ImNsYXNzSWQtQ29tbWFuZC0xIiBjbGFzcz0ibm9kZSBkZWZhdWx0Ij48ZyBjbGFzcz0iYmFzaWMgbGFiZWwtY29udGFpbmVyIj48cGF0aCBzdHlsZT0iIiBmaWxsPSIjZWVlIiBzdHJva2Utd2lkdGg9IjAiIHN0cm9rZT0ibm9uZSIgZD0iTS03MS4yNjI1MDA3NjI5Mzk0NSAtOTkgTDcxLjI2MjUwMDc2MjkzOTQ1IC05OSBMNzEuMjYyNTAwNzYyOTM5NDUgOTkgTC03MS4yNjI1MDA3NjI5Mzk0NSA5OSI+PC9wYXRoPjxwYXRoIHN0eWxlPSIiIGZpbGw9Im5vbmUiIHN0cm9rZS13aWR0aD0iMS4zIiBzdHJva2U9IiM5OTkiIGQ9Ik0tNzEuMjYyNTAwNzYyOTM5NDUgLTk5IEMtMzAuNzM0NDM2Njg2MzM2NzUgLTk5LCA5Ljc5MzYyNzM5MDI2NTk1NCAtOTksIDcxLjI2MjUwMDc2MjkzOTQ1IC05OSBNLTcxLjI2MjUwMDc2MjkzOTQ1IC05OSBDLTE5LjM3OTM3MDEzNDkwODQyNyAtOTksIDMyLjUwMzc2MDQ5MzEyMjYgLTk5LCA3MS4yNjI1MDA3NjI5Mzk0NSAtOTkgTTcxLjI2MjUwMDc2MjkzOTQ1IC05OSBDNzEuMjYyNTAwNzYyOTM5NDUgLTMyLjM5NDQ4NDkyMzc1MjIzLCA3MS4yNjI1MDA3NjI5Mzk0NSAzNC4yMTEwMzAxNTI0OTU1NCwgNzEuMjYyNTAwNzYyOTM5NDUgOTkgTTcxLjI2MjUwMDc2MjkzOTQ1IC05OSBDNzEuMjYyNTAwNzYyOTM5NDUgLTI0LjgwNzYyNDU2NDMzNjkwNSwgNzEuMjYyNTAwNzYyOTM5NDUgNDkuMzg0NzUwODcxMzI2MTksIDcxLjI2MjUwMDc2MjkzOTQ1IDk5IE03MS4yNjI1MDA3NjI5Mzk0NSA5OSBDMzMuODk0MDM3NjAxNDI1OTUgOTksIC0zLjQ3NDQyNTU2MDA4NzU1MzMgOTksIC03MS4yNjI1MDA3NjI5Mzk0NSA5OSBNNzEuMjYyNTAwNzYyOTM5NDUgOTkgQzM3LjY4MjMwOTYzMzg3MDIyIDk5LCA0LjEwMjExODUwNDgwMDk4NCA5OSwgLTcxLjI2MjUwMDc2MjkzOTQ1IDk5IE0tNzEuMjYyNTAwNzYyOTM5NDUgOTkgQy03MS4yNjI1MDA3NjI5Mzk0NSA0OC4xMTM0NTE4MjgwOTAzMzQsIC03MS4yNjI1MDA3NjI5Mzk0NSAtMi43NzMwOTYzNDM4MTkzMzMsIC03MS4yNjI1MDA3NjI5Mzk0NSAtOTkgTS03MS4yNjI1MDA3NjI5Mzk0NSA5OSBDLTcxLjI2MjUwMDc2MjkzOTQ1IDU0Ljk3NjAyODk2MjQyNzAxNiwgLTcxLjI2MjUwMDc2MjkzOTQ1IDEwLjk1MjA1NzkyNDg1NDAzMiwgLTcxLjI2MjUwMDc2MjkzOTQ1IC05OSI+PC9wYXRoPjwvZz48ZyB0cmFuc2Zvcm09InRyYW5zbGF0ZSgtNDEuMTc0OTk5MjM3MDYwNTUsIC03NSkiIGNsYXNzPSJhbm5vdGF0aW9uLWdyb3VwIHRleHQiPjxnIHRyYW5zZm9ybT0idHJhbnNsYXRlKDAsLTEyKSIgc3R5bGU9IiIgY2xhc3M9ImxhYmVsIj48Zm9yZWlnbk9iamVjdCBoZWlnaHQ9IjI0IiB3aWR0aD0iODIuMzQ5OTk4NDc0MTIxMSI+PGRpdiBzdHlsZT0iZGlzcGxheTogdGFibGUtY2VsbDsgd2hpdGUtc3BhY2U6IG5vd3JhcDsgbGluZS1oZWlnaHQ6IDEuNTsgbWF4LXdpZHRoOiAxMjdweDsgdGV4dC1hbGlnbjogY2VudGVyOyIgeG1sbnM9Imh0dHA6Ly93d3cudzMub3JnLzE5OTkveGh0bWwiPjxzcGFuIHN0eWxlPSIiIGNsYXNzPSJub2RlTGFiZWwgbWFya2Rvd24tbm9kZS1sYWJlbCI+PHA+wqtpbnRlcmZhY2XCuzwvcD48L3NwYW4+PC9kaXY+PC9mb3JlaWduT2JqZWN0PjwvZz48L2c+PGcgdHJhbnNmb3JtPSJ0cmFuc2xhdGUoLTM2LjgwNjI1MTUyNTg3ODkwNiwgLTUxKSIgY2xhc3M9ImxhYmVsLWdyb3VwIHRleHQiPjxnIHRyYW5zZm9ybT0idHJhbnNsYXRlKDAsLTEyKSIgc3R5bGU9ImZvbnQtd2VpZ2h0OiBib2xkZXIiIGNsYXNzPSJsYWJlbCI+PGZvcmVpZ25PYmplY3QgaGVpZ2h0PSIyNCIgd2lkdGg9IjczLjYxMjUwMzA1MTc1NzgxIj48ZGl2IHN0eWxlPSJkaXNwbGF5OiB0YWJsZS1jZWxsOyB3aGl0ZS1zcGFjZTogbm93cmFwOyBsaW5lLWhlaWdodDogMS41OyBtYXgtd2lkdGg6IDEyM3B4OyB0ZXh0LWFsaWduOiBjZW50ZXI7IiB4bWxucz0iaHR0cDovL3d3dy53My5vcmcvMTk5OS94aHRtbCI+PHNwYW4gc3R5bGU9IiIgY2xhc3M9Im5vZGVMYWJlbCBtYXJrZG93bi1ub2RlLWxhYmVsIj48cD5Db21tYW5kPC9wPjwvc3Bhbj48L2Rpdj48L2ZvcmVpZ25PYmplY3Q+PC9nPjwvZz48ZyB0cmFuc2Zvcm09InRyYW5zbGF0ZSgtNTkuMjYyNTAwNzYyOTM5NDUsIC0zKSIgY2xhc3M9Im1lbWJlcnMtZ3JvdXAgdGV4dCI+PC9nPjxnIHRyYW5zZm9ybT0idHJhbnNsYXRlKC01OS4yNjI1MDA3NjI5Mzk0NSwgMjcpIiBjbGFzcz0ibWV0aG9kcy1ncm91cCB0ZXh0Ij48ZyB0cmFuc2Zvcm09InRyYW5zbGF0ZSgwLC0xMikiIHN0eWxlPSIiIGNsYXNzPSJsYWJlbCI+PGZvcmVpZ25PYmplY3QgaGVpZ2h0PSIyNCIgd2lkdGg9Ijc3LjM0OTk5ODQ3NDEyMTEiPjxkaXYgc3R5bGU9ImRpc3BsYXk6IHRhYmxlLWNlbGw7IHdoaXRlLXNwYWNlOiBub3dyYXA7IGxpbmUtaGVpZ2h0OiAxLjU7IG1heC13aWR0aDogMTMycHg7IHRleHQtYWxpZ246IGNlbnRlcjsiIHhtbG5zPSJodHRwOi8vd3d3LnczLm9yZy8xOTk5L3hodG1sIj48c3BhbiBzdHlsZT0iIiBjbGFzcz0ibm9kZUxhYmVsIG1hcmtkb3duLW5vZGUtbGFiZWwiPjxwPitleGVjdXRlKCk8L3A+PC9zcGFuPjwvZGl2PjwvZm9yZWlnbk9iamVjdD48L2c+PGcgdHJhbnNmb3JtPSJ0cmFuc2xhdGUoMCwxMikiIHN0eWxlPSIiIGNsYXNzPSJsYWJlbCI+PGZvcmVpZ25PYmplY3QgaGVpZ2h0PSIyNCIgd2lkdGg9IjU1LjEyNSI+PGRpdiBzdHlsZT0iZGlzcGxheTogdGFibGUtY2VsbDsgd2hpdGUtc3BhY2U6IG5vd3JhcDsgbGluZS1oZWlnaHQ6IDEuNTsgbWF4LXdpZHRoOiAxMTRweDsgdGV4dC1hbGlnbjogY2VudGVyOyIgeG1sbnM9Imh0dHA6Ly93d3cudzMub3JnLzE5OTkveGh0bWwiPjxzcGFuIHN0eWxlPSIiIGNsYXNzPSJub2RlTGFiZWwgbWFya2Rvd24tbm9kZS1sYWJlbCI+PHA+K3VuZG8oKTwvcD48L3NwYW4+PC9kaXY+PC9mb3JlaWduT2JqZWN0PjwvZz48ZyB0cmFuc2Zvcm09InRyYW5zbGF0ZSgwLDM2KSIgc3R5bGU9IiIgY2xhc3M9ImxhYmVsIj48Zm9yZWlnbk9iamVjdCBoZWlnaHQ9IjI0IiB3aWR0aD0iNTIuNTg3NTAxNTI1ODc4OTA2Ij48ZGl2IHN0eWxlPSJkaXNwbGF5OiB0YWJsZS1jZWxsOyB3aGl0ZS1zcGFjZTogbm93cmFwOyBsaW5lLWhlaWdodDogMS41OyBtYXgtd2lkdGg6IDExMHB4OyB0ZXh0LWFsaWduOiBjZW50ZXI7IiB4bWxucz0iaHR0cDovL3d3dy53My5vcmcvMTk5OS94aHRtbCI+PHNwYW4gc3R5bGU9IiIgY2xhc3M9Im5vZGVMYWJlbCBtYXJrZG93bi1ub2RlLWxhYmVsIj48cD4rcmVkbygpPC9wPjwvc3Bhbj48L2Rpdj48L2ZvcmVpZ25PYmplY3Q+PC9nPjwvZz48ZyBzdHlsZT0iIiBjbGFzcz0iZGl2aWRlciI+PHBhdGggc3R5bGU9IiIgZmlsbD0ibm9uZSIgc3Ryb2tlLXdpZHRoPSIxLjMiIHN0cm9rZT0iIzk5OSIgZD0iTS03MS4yNjI0OTY5NDgyNDIxOSAtMjcgQy00MC44MDExMTA5OTMxMzAzNSAtMjcsIC0xMC4zMzk3MjUwMzgwMTg1MDcgLTI3LCA3MS4yNjI0OTY5NDgyNDIxOSAtMjcgTS03MS4yNjI0OTY5NDgyNDIxOSAtMjcgQy0yOS44NDc5NzI5MTM4NDc5MzMgLTI3LCAxMS41NjY1NTExMjA1NDYzMjIgLTI3LCA3MS4yNjI0OTY5NDgyNDIxOSAtMjciPjwvcGF0aD48L2c+PGcgc3R5bGU9IiIgY2xhc3M9ImRpdmlkZXIiPjxwYXRoIHN0eWxlPSIiIGZpbGw9Im5vbmUiIHN0cm9rZS13aWR0aD0iMS4zIiBzdHJva2U9IiM5OTkiIGQ9Ik0tNzEuMjYyNDk2OTQ4MjQyMTkgLTMgQy0zMC4wMDMxODc2MDY3NzkxNDMgLTMsIDExLjI1NjEyMTczNDY4MzkwMiAtMywgNzEuMjYyNDk2OTQ4MjQyMTkgLTMgTS03MS4yNjI0OTY5NDgyNDIxOSAtMyBDLTMyLjIzNjc5MzA1Mjc1NzYyIC0zLCA2Ljc4ODkxMDg0MjcyNjk0OSAtMywgNzEuMjYyNDk2OTQ4MjQyMTkgLTMiPjwvcGF0aD48L2c+PC9nPjxnIHRyYW5zZm9ybT0idHJhbnNsYXRlKDEwMi43NTYyNDg0NzQxMjExLCA2NzQuNzk5OTk5MjM3MDYwNSkiIGlkPSJjbGFzc0lkLVR1cm5Pbi0yIiBjbGFzcz0ibm9kZSBkZWZhdWx0Ij48ZyBjbGFzcz0iYmFzaWMgbGFiZWwtY29udGFpbmVyIj48cGF0aCBzdHlsZT0iIiBmaWxsPSIjZWVlIiBzdHJva2Utd2lkdGg9IjAiIHN0cm9rZT0ibm9uZSIgZD0iTS05NC43NTYyNDg0NzQxMjExIC0xMDggTDk0Ljc1NjI0ODQ3NDEyMTEgLTEwOCBMOTQuNzU2MjQ4NDc0MTIxMSAxMDggTC05NC43NTYyNDg0NzQxMjExIDEwOCI+PC9wYXRoPjxwYXRoIHN0eWxlPSIiIGZpbGw9Im5vbmUiIHN0cm9rZS13aWR0aD0iMS4zIiBzdHJva2U9IiM5OTkiIGQ9Ik0tOTQuNzU2MjQ4NDc0MTIxMSAtMTA4IEMtNTAuNDg5MDQ1MTMwNzQyMDEgLTEwOCwgLTYuMjIxODQxNzg3MzYyOTE5IC0xMDgsIDk0Ljc1NjI0ODQ3NDEyMTEgLTEwOCBNLTk0Ljc1NjI0ODQ3NDEyMTEgLTEwOCBDLTIxLjk4MTI3MzY1OTcyMTMxIC0xMDgsIDUwLjc5MzcwMTE1NDY3ODQ3IC0xMDgsIDk0Ljc1NjI0ODQ3NDEyMTEgLTEwOCBNOTQuNzU2MjQ4NDc0MTIxMSAtMTA4IEM5NC43NTYyNDg0NzQxMjExIC0zMS4zOTkyNjkwOTU5NTQ3MzYsIDk0Ljc1NjI0ODQ3NDEyMTEgNDUuMjAxNDYxODA4MDkwNTMsIDk0Ljc1NjI0ODQ3NDEyMTEgMTA4IE05NC43NTYyNDg0NzQxMjExIC0xMDggQzk0Ljc1NjI0ODQ3NDEyMTEgLTUwLjgyNjUwOTg1ODM5NzA3NCwgOTQuNzU2MjQ4NDc0MTIxMSA2LjM0Njk4MDI4MzIwNTg1MiwgOTQuNzU2MjQ4NDc0MTIxMSAxMDggTTk0Ljc1NjI0ODQ3NDEyMTEgMTA4IEMxOS41MDI0NDI5MjE3NDYyNSAxMDgsIC01NS43NTEzNjI2MzA2Mjg1OSAxMDgsIC05NC43NTYyNDg0NzQxMjExIDEwOCBNOTQuNzU2MjQ4NDc0MTIxMSAxMDggQzQ0LjM1ODMyMjczNzU3MTM5IDEwOCwgLTYuMDM5NjAyOTk4OTc4MzEgMTA4LCAtOTQuNzU2MjQ4NDc0MTIxMSAxMDggTS05NC43NTYyNDg0NzQxMjExIDEwOCBDLTk0Ljc1NjI0ODQ3NDEyMTEgMjkuNzg3Njk0OTcwOTY4NjE2LCAtOTQuNzU2MjQ4NDc0MTIxMSAtNDguNDI0NjEwMDU4MDYyNzcsIC05NC43NTYyNDg0NzQxMjExIC0xMDggTS05NC43NTYyNDg0NzQxMjExIDEwOCBDLTk0Ljc1NjI0ODQ3NDEyMTEgMjIuMzgyNzAxNjM4Mzk4NzE0LCAtOTQuNzU2MjQ4NDc0MTIxMSAtNjMuMjM0NTk2NzIzMjAyNTcsIC05NC43NTYyNDg0NzQxMjExIC0xMDgiPjwvcGF0aD48L2c+PGcgdHJhbnNmb3JtPSJ0cmFuc2xhdGUoMCwgLTg0KSIgY2xhc3M9ImFubm90YXRpb24tZ3JvdXAgdGV4dCI+PC9nPjxnIHRyYW5zZm9ybT0idHJhbnNsYXRlKC0yNy4zODc1MDA3NjI5Mzk0NTMsIC04NCkiIGNsYXNzPSJsYWJlbC1ncm91cCB0ZXh0Ij48ZyB0cmFuc2Zvcm09InRyYW5zbGF0ZSgwLC0xMikiIHN0eWxlPSJmb250LXdlaWdodDogYm9sZGVyIiBjbGFzcz0ibGFiZWwiPjxmb3JlaWduT2JqZWN0IGhlaWdodD0iMjQiIHdpZHRoPSI1NC43NzUwMDE1MjU4Nzg5MDYiPjxkaXYgc3R5bGU9ImRpc3BsYXk6IHRhYmxlLWNlbGw7IHdoaXRlLXNwYWNlOiBub3dyYXA7IGxpbmUtaGVpZ2h0OiAxLjU7IG1heC13aWR0aDogMTAzcHg7IHRleHQtYWxpZ246IGNlbnRlcjsiIHhtbG5zPSJodHRwOi8vd3d3LnczLm9yZy8xOTk5L3hodG1sIj48c3BhbiBzdHlsZT0iIiBjbGFzcz0ibm9kZUxhYmVsIG1hcmtkb3duLW5vZGUtbGFiZWwiPjxwPlR1cm5PbjwvcD48L3NwYW4+PC9kaXY+PC9mb3JlaWduT2JqZWN0PjwvZz48L2c+PGcgdHJhbnNmb3JtPSJ0cmFuc2xhdGUoLTgyLjc1NjI0ODQ3NDEyMTEsIC0zNikiIGNsYXNzPSJtZW1iZXJzLWdyb3VwIHRleHQiPjxnIHRyYW5zZm9ybT0idHJhbnNsYXRlKDAsLTEyKSIgc3R5bGU9IiIgY2xhc3M9ImxhYmVsIj48Zm9yZWlnbk9iamVjdCBoZWlnaHQ9IjI0IiB3aWR0aD0iNzMuNDI1MDAzMDUxNzU3ODEiPjxkaXYgc3R5bGU9ImRpc3BsYXk6IHRhYmxlLWNlbGw7IHdoaXRlLXNwYWNlOiBub3dyYXA7IGxpbmUtaGVpZ2h0OiAxLjU7IG1heC13aWR0aDogMTMxcHg7IHRleHQtYWxpZ246IGNlbnRlcjsiIHhtbG5zPSJodHRwOi8vd3d3LnczLm9yZy8xOTk5L3hodG1sIj48c3BhbiBzdHlsZT0iIiBjbGFzcz0ibm9kZUxhYmVsIG1hcmtkb3duLW5vZGUtbGFiZWwiPjxwPi1CdWxiIGJ1bGI8L3A+PC9zcGFuPjwvZGl2PjwvZm9yZWlnbk9iamVjdD48L2c+PC9nPjxnIHRyYW5zZm9ybT0idHJhbnNsYXRlKC04Mi43NTYyNDg0NzQxMjExLCAxMikiIGNsYXNzPSJtZXRob2RzLWdyb3VwIHRleHQiPjxnIHRyYW5zZm9ybT0idHJhbnNsYXRlKDAsLTEyKSIgc3R5bGU9IiIgY2xhc3M9ImxhYmVsIj48Zm9yZWlnbk9iamVjdCBoZWlnaHQ9IjI0IiB3aWR0aD0iMTM4LjEyNSI+PGRpdiBzdHlsZT0iZGlzcGxheTogdGFibGUtY2VsbDsgd2hpdGUtc3BhY2U6IG5vd3JhcDsgbGluZS1oZWlnaHQ6IDEuNTsgbWF4LXdpZHRoOiAxOThweDsgdGV4dC1hbGlnbjogY2VudGVyOyIgeG1sbnM9Imh0dHA6Ly93d3cudzMub3JnLzE5OTkveGh0bWwiPjxzcGFuIHN0eWxlPSIiIGNsYXNzPSJub2RlTGFiZWwgbWFya2Rvd24tbm9kZS1sYWJlbCI+PHA+K1R1cm5PbihCdWxiIGJ1bGIpPC9wPjwvc3Bhbj48L2Rpdj48L2ZvcmVpZ25PYmplY3Q+PC9nPjxnIHRyYW5zZm9ybT0idHJhbnNsYXRlKDAsMTIpIiBzdHlsZT0iIiBjbGFzcz0ibGFiZWwiPjxmb3JlaWduT2JqZWN0IGhlaWdodD0iMjQiIHdpZHRoPSI3Ny4zNDk5OTg0NzQxMjExIj48ZGl2IHN0eWxlPSJkaXNwbGF5OiB0YWJsZS1jZWxsOyB3aGl0ZS1zcGFjZTogbm93cmFwOyBsaW5lLWhlaWdodDogMS41OyBtYXgtd2lkdGg6IDEzMnB4OyB0ZXh0LWFsaWduOiBjZW50ZXI7IiB4bWxucz0iaHR0cDovL3d3dy53My5vcmcvMTk5OS94aHRtbCI+PHNwYW4gc3R5bGU9IiIgY2xhc3M9Im5vZGVMYWJlbCBtYXJrZG93bi1ub2RlLWxhYmVsIj48cD4rZXhlY3V0ZSgpPC9wPjwvc3Bhbj48L2Rpdj48L2ZvcmVpZ25PYmplY3Q+PC9nPjxnIHRyYW5zZm9ybT0idHJhbnNsYXRlKDAsMzYpIiBzdHlsZT0iIiBjbGFzcz0ibGFiZWwiPjxmb3JlaWduT2JqZWN0IGhlaWdodD0iMjQiIHdpZHRoPSI1NS4xMjUiPjxkaXYgc3R5bGU9ImRpc3BsYXk6IHRhYmxlLWNlbGw7IHdoaXRlLXNwYWNlOiBub3dyYXA7IGxpbmUtaGVpZ2h0OiAxLjU7IG1heC13aWR0aDogMTE0cHg7IHRleHQtYWxpZ246IGNlbnRlcjsiIHhtbG5zPSJodHRwOi8vd3d3LnczLm9yZy8xOTk5L3hodG1sIj48c3BhbiBzdHlsZT0iIiBjbGFzcz0ibm9kZUxhYmVsIG1hcmtkb3duLW5vZGUtbGFiZWwiPjxwPit1bmRvKCk8L3A+PC9zcGFuPjwvZGl2PjwvZm9yZWlnbk9iamVjdD48L2c+PGcgdHJhbnNmb3JtPSJ0cmFuc2xhdGUoMCw2MCkiIHN0eWxlPSIiIGNsYXNzPSJsYWJlbCI+PGZvcmVpZ25PYmplY3QgaGVpZ2h0PSIyNCIgd2lkdGg9IjUyLjU4NzUwMTUyNTg3ODkwNiI+PGRpdiBzdHlsZT0iZGlzcGxheTogdGFibGUtY2VsbDsgd2hpdGUtc3BhY2U6IG5vd3JhcDsgbGluZS1oZWlnaHQ6IDEuNTsgbWF4LXdpZHRoOiAxMTBweDsgdGV4dC1hbGlnbjogY2VudGVyOyIgeG1sbnM9Imh0dHA6Ly93d3cudzMub3JnLzE5OTkveGh0bWwiPjxzcGFuIHN0eWxlPSIiIGNsYXNzPSJub2RlTGFiZWwgbWFya2Rvd24tbm9kZS1sYWJlbCI+PHA+K3JlZG8oKTwvcD48L3NwYW4+PC9kaXY+PC9mb3JlaWduT2JqZWN0PjwvZz48L2c+PGcgc3R5bGU9IiIgY2xhc3M9ImRpdmlkZXIiPjxwYXRoIHN0eWxlPSIiIGZpbGw9Im5vbmUiIHN0cm9rZS13aWR0aD0iMS4zIiBzdHJva2U9IiM5OTkiIGQ9Ik0tOTQuNzU2MjQ4NDc0MTIxMSAtNjAgQy00NC4wODE4MTQ5ODczODU0OCAtNjAsIDYuNTkyNjE4NDk5MzUwMTM4IC02MCwgOTQuNzU2MjQ4NDc0MTIxMSAtNjAgTS05NC43NTYyNDg0NzQxMjExIC02MCBDLTM2LjA4MzY5OTY0NDc0MTE3IC02MCwgMjIuNTg4ODQ5MTg0NjM4NzQ3IC02MCwgOTQuNzU2MjQ4NDc0MTIxMSAtNjAiPjwvcGF0aD48L2c+PGcgc3R5bGU9IiIgY2xhc3M9ImRpdmlkZXIiPjxwYXRoIHN0eWxlPSIiIGZpbGw9Im5vbmUiIHN0cm9rZS13aWR0aD0iMS4zIiBzdHJva2U9IiM5OTkiIGQ9Ik0tOTQuNzU2MjQ4NDc0MTIxMSAtMTIgQy0zOS4xODQ4MTI3NDY2OTA1OSAtMTIsIDE2LjM4NjYyMjk4MDczOTkxNSAtMTIsIDk0Ljc1NjI0ODQ3NDEyMTEgLTEyIE0tOTQuNzU2MjQ4NDc0MTIxMSAtMTIgQy0zNC41MTI4Nzg2MDI4MDI3MSAtMTIsIDI1LjczMDQ5MTI2ODUxNTY3OCAtMTIsIDk0Ljc1NjI0ODQ3NDEyMTEgLTEyIj48L3BhdGg+PC9nPjwvZz48ZyB0cmFuc2Zvcm09InRyYW5zbGF0ZSgzNDQuNDA5Mzc4MDUxNzU3OCwgNjc0Ljc5OTk5OTIzNzA2MDUpIiBpZD0iY2xhc3NJZC1UdXJuT2ZmLTMiIGNsYXNzPSJub2RlIGRlZmF1bHQiPjxnIGNsYXNzPSJiYXNpYyBsYWJlbC1jb250YWluZXIiPjxwYXRoIHN0eWxlPSIiIGZpbGw9IiNlZWUiIHN0cm9rZS13aWR0aD0iMCIgc3Ryb2tlPSJub25lIiBkPSJNLTk2Ljg5Njg4MTEwMzUxNTYyIC0xMDggTDk2Ljg5Njg4MTEwMzUxNTYyIC0xMDggTDk2Ljg5Njg4MTEwMzUxNTYyIDEwOCBMLTk2Ljg5Njg4MTEwMzUxNTYyIDEwOCI+PC9wYXRoPjxwYXRoIHN0eWxlPSIiIGZpbGw9Im5vbmUiIHN0cm9rZS13aWR0aD0iMS4zIiBzdHJva2U9IiM5OTkiIGQ9Ik0tOTYuODk2ODgxMTAzNTE1NjIgLTEwOCBDLTM5LjUzMzk0OTQyMjQxNTI1IC0xMDgsIDE3LjgyODk4MjI1ODY4NTEzIC0xMDgsIDk2Ljg5Njg4MTEwMzUxNTYyIC0xMDggTS05Ni44OTY4ODExMDM1MTU2MiAtMTA4IEMtMzUuMzI2MjAzNDMzMzk3ODMgLTEwOCwgMjYuMjQ0NDc0MjM2NzE5OTY3IC0xMDgsIDk2Ljg5Njg4MTEwMzUxNTYyIC0xMDggTTk2Ljg5Njg4MTEwMzUxNTYyIC0xMDggQzk2Ljg5Njg4MTEwMzUxNTYyIC0yNC4yNDY5OTkyNzI1NTQxNzcsIDk2Ljg5Njg4MTEwMzUxNTYyIDU5LjUwNjAwMTQ1NDg5MTY0NiwgOTYuODk2ODgxMTAzNTE1NjIgMTA4IE05Ni44OTY4ODExMDM1MTU2MiAtMTA4IEM5Ni44OTY4ODExMDM1MTU2MiAtNDkuNzU1ODQ3MTA3ODI0OTIsIDk2Ljg5Njg4MTEwMzUxNTYyIDguNDg4MzA1Nzg0MzUwMTYsIDk2Ljg5Njg4MTEwMzUxNTYyIDEwOCBNOTYuODk2ODgxMTAzNTE1NjIgMTA4IEM0OS4zNjE3OTk1NDM0NTc2ODYgMTA4LCAxLjgyNjcxNzk4MzM5OTc0NiAxMDgsIC05Ni44OTY4ODExMDM1MTU2MiAxMDggTTk2Ljg5Njg4MTEwMzUxNTYyIDEwOCBDMzMuNjYzODc4NTUyOTkwMzU0IDEwOCwgLTI5LjU2OTEyMzk5NzUzNDkxNiAxMDgsIC05Ni44OTY4ODExMDM1MTU2MiAxMDggTS05Ni44OTY4ODExMDM1MTU2MiAxMDggQy05Ni44OTY4ODExMDM1MTU2MiA2MC40ODI1ODQxODU0NTQwNCwgLTk2Ljg5Njg4MTEwMzUxNTYyIDEyLjk2NTE2ODM3MDkwODA3NCwgLTk2Ljg5Njg4MTEwMzUxNTYyIC0xMDggTS05Ni44OTY4ODExMDM1MTU2MiAxMDggQy05Ni44OTY4ODExMDM1MTU2MiA1Ni40NDk5MDE5NzEwOTI0MiwgLTk2Ljg5Njg4MTEwMzUxNTYyIDQuODk5ODAzOTQyMTg0ODQ2LCAtOTYuODk2ODgxMTAzNTE1NjIgLTEwOCI+PC9wYXRoPjwvZz48ZyB0cmFuc2Zvcm09InRyYW5zbGF0ZSgwLCAtODQpIiBjbGFzcz0iYW5ub3RhdGlvbi1ncm91cCB0ZXh0Ij48L2c+PGcgdHJhbnNmb3JtPSJ0cmFuc2xhdGUoLTI4LjU4MTI1MTE0NDQwOTE4LCAtODQpIiBjbGFzcz0ibGFiZWwtZ3JvdXAgdGV4dCI+PGcgdHJhbnNmb3JtPSJ0cmFuc2xhdGUoMCwtMTIpIiBzdHlsZT0iZm9udC13ZWlnaHQ6IGJvbGRlciIgY2xhc3M9ImxhYmVsIj48Zm9yZWlnbk9iamVjdCBoZWlnaHQ9IjI0IiB3aWR0aD0iNTcuMTYyNTAyMjg4ODE4MzYiPjxkaXYgc3R5bGU9ImRpc3BsYXk6IHRhYmxlLWNlbGw7IHdoaXRlLXNwYWNlOiBub3dyYXA7IGxpbmUtaGVpZ2h0OiAxLjU7IG1heC13aWR0aDogMTA1cHg7IHRleHQtYWxpZ246IGNlbnRlcjsiIHhtbG5zPSJodHRwOi8vd3d3LnczLm9yZy8xOTk5L3hodG1sIj48c3BhbiBzdHlsZT0iIiBjbGFzcz0ibm9kZUxhYmVsIG1hcmtkb3duLW5vZGUtbGFiZWwiPjxwPlR1cm5PZmY8L3A+PC9zcGFuPjwvZGl2PjwvZm9yZWlnbk9iamVjdD48L2c+PC9nPjxnIHRyYW5zZm9ybT0idHJhbnNsYXRlKC04NC44OTY4ODExMDM1MTU2MiwgLTM2KSIgY2xhc3M9Im1lbWJlcnMtZ3JvdXAgdGV4dCI+PGcgdHJhbnNmb3JtPSJ0cmFuc2xhdGUoMCwtMTIpIiBzdHlsZT0iIiBjbGFzcz0ibGFiZWwiPjxmb3JlaWduT2JqZWN0IGhlaWdodD0iMjQiIHdpZHRoPSI3My40MjUwMDMwNTE3NTc4MSI+PGRpdiBzdHlsZT0iZGlzcGxheTogdGFibGUtY2VsbDsgd2hpdGUtc3BhY2U6IG5vd3JhcDsgbGluZS1oZWlnaHQ6IDEuNTsgbWF4LXdpZHRoOiAxMzFweDsgdGV4dC1hbGlnbjogY2VudGVyOyIgeG1sbnM9Imh0dHA6Ly93d3cudzMub3JnLzE5OTkveGh0bWwiPjxzcGFuIHN0eWxlPSIiIGNsYXNzPSJub2RlTGFiZWwgbWFya2Rvd24tbm9kZS1sYWJlbCI+PHA+LUJ1bGIgYnVsYjwvcD48L3NwYW4+PC9kaXY+PC9mb3JlaWduT2JqZWN0PjwvZz48L2c+PGcgdHJhbnNmb3JtPSJ0cmFuc2xhdGUoLTg0Ljg5Njg4MTEwMzUxNTYyLCAxMikiIGNsYXNzPSJtZXRob2RzLWdyb3VwIHRleHQiPjxnIHRyYW5zZm9ybT0idHJhbnNsYXRlKDAsLTEyKSIgc3R5bGU9IiIgY2xhc3M9ImxhYmVsIj48Zm9yZWlnbk9iamVjdCBoZWlnaHQ9IjI0IiB3aWR0aD0iMTQxLjIxMjUwOTE1NTI3MzQ0Ij48ZGl2IHN0eWxlPSJkaXNwbGF5OiB0YWJsZS1jZWxsOyB3aGl0ZS1zcGFjZTogbm93cmFwOyBsaW5lLWhlaWdodDogMS41OyBtYXgtd2lkdGg6IDE5OXB4OyB0ZXh0LWFsaWduOiBjZW50ZXI7IiB4bWxucz0iaHR0cDovL3d3dy53My5vcmcvMTk5OS94aHRtbCI+PHNwYW4gc3R5bGU9IiIgY2xhc3M9Im5vZGVMYWJlbCBtYXJrZG93bi1ub2RlLWxhYmVsIj48cD4rVHVybk9mZihCdWxiIGJ1bGIpPC9wPjwvc3Bhbj48L2Rpdj48L2ZvcmVpZ25PYmplY3Q+PC9nPjxnIHRyYW5zZm9ybT0idHJhbnNsYXRlKDAsMTIpIiBzdHlsZT0iIiBjbGFzcz0ibGFiZWwiPjxmb3JlaWduT2JqZWN0IGhlaWdodD0iMjQiIHdpZHRoPSI3Ny4zNDk5OTg0NzQxMjExIj48ZGl2IHN0eWxlPSJkaXNwbGF5OiB0YWJsZS1jZWxsOyB3aGl0ZS1zcGFjZTogbm93cmFwOyBsaW5lLWhlaWdodDogMS41OyBtYXgtd2lkdGg6IDEzMnB4OyB0ZXh0LWFsaWduOiBjZW50ZXI7IiB4bWxucz0iaHR0cDovL3d3dy53My5vcmcvMTk5OS94aHRtbCI+PHNwYW4gc3R5bGU9IiIgY2xhc3M9Im5vZGVMYWJlbCBtYXJrZG93bi1ub2RlLWxhYmVsIj48cD4rZXhlY3V0ZSgpPC9wPjwvc3Bhbj48L2Rpdj48L2ZvcmVpZ25PYmplY3Q+PC9nPjxnIHRyYW5zZm9ybT0idHJhbnNsYXRlKDAsMzYpIiBzdHlsZT0iIiBjbGFzcz0ibGFiZWwiPjxmb3JlaWduT2JqZWN0IGhlaWdodD0iMjQiIHdpZHRoPSI1NS4xMjUiPjxkaXYgc3R5bGU9ImRpc3BsYXk6IHRhYmxlLWNlbGw7IHdoaXRlLXNwYWNlOiBub3dyYXA7IGxpbmUtaGVpZ2h0OiAxLjU7IG1heC13aWR0aDogMTE0cHg7IHRleHQtYWxpZ246IGNlbnRlcjsiIHhtbG5zPSJodHRwOi8vd3d3LnczLm9yZy8xOTk5L3hodG1sIj48c3BhbiBzdHlsZT0iIiBjbGFzcz0ibm9kZUxhYmVsIG1hcmtkb3duLW5vZGUtbGFiZWwiPjxwPit1bmRvKCk8L3A+PC9zcGFuPjwvZGl2PjwvZm9yZWlnbk9iamVjdD48L2c+PGcgdHJhbnNmb3JtPSJ0cmFuc2xhdGUoMCw2MCkiIHN0eWxlPSIiIGNsYXNzPSJsYWJlbCI+PGZvcmVpZ25PYmplY3QgaGVpZ2h0PSIyNCIgd2lkdGg9IjUyLjU4NzUwMTUyNTg3ODkwNiI+PGRpdiBzdHlsZT0iZGlzcGxheTogdGFibGUtY2VsbDsgd2hpdGUtc3BhY2U6IG5vd3JhcDsgbGluZS1oZWlnaHQ6IDEuNTsgbWF4LXdpZHRoOiAxMTBweDsgdGV4dC1hbGlnbjogY2VudGVyOyIgeG1sbnM9Imh0dHA6Ly93d3cudzMub3JnLzE5OTkveGh0bWwiPjxzcGFuIHN0eWxlPSIiIGNsYXNzPSJub2RlTGFiZWwgbWFya2Rvd24tbm9kZS1sYWJlbCI+PHA+K3JlZG8oKTwvcD48L3NwYW4+PC9kaXY+PC9mb3JlaWduT2JqZWN0PjwvZz48L2c+PGcgc3R5bGU9IiIgY2xhc3M9ImRpdmlkZXIiPjxwYXRoIHN0eWxlPSIiIGZpbGw9Im5vbmUiIHN0cm9rZS13aWR0aD0iMS4zIiBzdHJva2U9IiM5OTkiIGQ9Ik0tOTYuODk2ODgxMTAzNTE1NjIgLTYwIEMtMjYuMjIwMjY3MjE0NzYwODI0IC02MCwgNDQuNDU2MzQ2NjczOTkzOTggLTYwLCA5Ni44OTY4ODExMDM1MTU2MiAtNjAgTS05Ni44OTY4ODExMDM1MTU2MiAtNjAgQy01Ny45MjUwNTk1OTAwNjIyMiAtNjAsIC0xOC45NTMyMzgwNzY2MDg4MTIgLTYwLCA5Ni44OTY4ODExMDM1MTU2MiAtNjAiPjwvcGF0aD48L2c+PGcgc3R5bGU9IiIgY2xhc3M9ImRpdmlkZXIiPjxwYXRoIHN0eWxlPSIiIGZpbGw9Im5vbmUiIHN0cm9rZS13aWR0aD0iMS4zIiBzdHJva2U9IiM5OTkiIGQ9Ik0tOTYuODk2ODgxMTAzNTE1NjIgLTEyIEMtMzguNzE5ODUzMTQyMDA1ODQgLTEyLCAxOS40NTcxNzQ4MTk1MDM5NDggLTEyLCA5Ni44OTY4ODExMDM1MTU2MiAtMTIgTS05Ni44OTY4ODExMDM1MTU2MiAtMTIgQy01Mi43OTM4NTI4NTM4NzA0MSAtMTIsIC04LjY5MDgyNDYwNDIyNTE5OSAtMTIsIDk2Ljg5Njg4MTEwMzUxNTYyIC0xMiI+PC9wYXRoPjwvZz48L2c+PGcgdHJhbnNmb3JtPSJ0cmFuc2xhdGUoMjIzLjU4MjgxMzI2MjkzOTQ1LCAxMTYpIiBpZD0iY2xhc3NJZC1SZW1vdGVDb250cm9sLTQiIGNsYXNzPSJub2RlIGRlZmF1bHQiPjxnIGNsYXNzPSJiYXNpYyBsYWJlbC1jb250YWluZXIiPjxwYXRoIHN0eWxlPSIiIGZpbGw9IiNlZWUiIHN0cm9rZS13aWR0aD0iMCIgc3Ryb2tlPSJub25lIiBkPSJNLTE4Ni41NzE4ODQxNTUyNzM0NCAtMTA4IEwxODYuNTcxODg0MTU1MjczNDQgLTEwOCBMMTg2LjU3MTg4NDE1NTI3MzQ0IDEwOCBMLTE4Ni41NzE4ODQxNTUyNzM0NCAxMDgiPjwvcGF0aD48cGF0aCBzdHlsZT0iIiBmaWxsPSJub25lIiBzdHJva2Utd2lkdGg9IjEuMyIgc3Ryb2tlPSIjOTk5IiBkPSJNLTE4Ni41NzE4ODQxNTUyNzM0NCAtMTA4IEMtNTUuNTc0NjY3NTA5NjMyNDkgLTEwOCwgNzUuNDIyNTQ5MTM2MDA4NDYgLTEwOCwgMTg2LjU3MTg4NDE1NTI3MzQ0IC0xMDggTS0xODYuNTcxODg0MTU1MjczNDQgLTEwOCBDLTEwMi43ODI1NDI0MzcyMzIxNyAtMTA4LCAtMTguOTkzMjAwNzE5MTkwODk1IC0xMDgsIDE4Ni41NzE4ODQxNTUyNzM0NCAtMTA4IE0xODYuNTcxODg0MTU1MjczNDQgLTEwOCBDMTg2LjU3MTg4NDE1NTI3MzQ0IC01Mi4yODI5OTE4MDUyNjU3OTQsIDE4Ni41NzE4ODQxNTUyNzM0NCAzLjQzNDAxNjM4OTQ2ODQxMSwgMTg2LjU3MTg4NDE1NTI3MzQ0IDEwOCBNMTg2LjU3MTg4NDE1NTI3MzQ0IC0xMDggQzE4Ni41NzE4ODQxNTUyNzM0NCAtNTQuNzYyMDk2NDE4MjcxMzEsIDE4Ni41NzE4ODQxNTUyNzM0NCAtMS41MjQxOTI4MzY1NDI2MjQ3LCAxODYuNTcxODg0MTU1MjczNDQgMTA4IE0xODYuNTcxODg0MTU1MjczNDQgMTA4IEM2Ny44NTUzODIyNjUxMjQzNiAxMDgsIC01MC44NjExMTk2MjUwMjQ3MSAxMDgsIC0xODYuNTcxODg0MTU1MjczNDQgMTA4IE0xODYuNTcxODg0MTU1MjczNDQgMTA4IEM5MC4zMTg0NTQ1OTUwNDk3NiAxMDgsIC01LjkzNDk3NDk2NTE3MzkyMiAxMDgsIC0xODYuNTcxODg0MTU1MjczNDQgMTA4IE0tMTg2LjU3MTg4NDE1NTI3MzQ0IDEwOCBDLTE4Ni41NzE4ODQxNTUyNzM0NCA0MS44OTg1MTAwMjI2MTAyOCwgLTE4Ni41NzE4ODQxNTUyNzM0NCAtMjQuMjAyOTc5OTU0Nzc5NDM3LCAtMTg2LjU3MTg4NDE1NTI3MzQ0IC0xMDggTS0xODYuNTcxODg0MTU1MjczNDQgMTA4IEMtMTg2LjU3MTg4NDE1NTI3MzQ0IDY0LjQ3MTgxOTM4Mjg3MTg0LCAtMTg2LjU3MTg4NDE1NTI3MzQ0IDIwLjk0MzYzODc2NTc0MzY4NSwgLTE4Ni41NzE4ODQxNTUyNzM0NCAtMTA4Ij48L3BhdGg+PC9nPjxnIHRyYW5zZm9ybT0idHJhbnNsYXRlKDAsIC04NCkiIGNsYXNzPSJhbm5vdGF0aW9uLWdyb3VwIHRleHQiPjwvZz48ZyB0cmFuc2Zvcm09InRyYW5zbGF0ZSgtNTYuMjgxMjUsIC04NCkiIGNsYXNzPSJsYWJlbC1ncm91cCB0ZXh0Ij48ZyB0cmFuc2Zvcm09InRyYW5zbGF0ZSgwLC0xMikiIHN0eWxlPSJmb250LXdlaWdodDogYm9sZGVyIiBjbGFzcz0ibGFiZWwiPjxmb3JlaWduT2JqZWN0IGhlaWdodD0iMjQiIHdpZHRoPSIxMTIuNTYyNSI+PGRpdiBzdHlsZT0iZGlzcGxheTogdGFibGUtY2VsbDsgd2hpdGUtc3BhY2U6IG5vd3JhcDsgbGluZS1oZWlnaHQ6IDEuNTsgbWF4LXdpZHRoOiAxNTdweDsgdGV4dC1hbGlnbjogY2VudGVyOyIgeG1sbnM9Imh0dHA6Ly93d3cudzMub3JnLzE5OTkveGh0bWwiPjxzcGFuIHN0eWxlPSIiIGNsYXNzPSJub2RlTGFiZWwgbWFya2Rvd24tbm9kZS1sYWJlbCI+PHA+UmVtb3RlQ29udHJvbDwvcD48L3NwYW4+PC9kaXY+PC9mb3JlaWduT2JqZWN0PjwvZz48L2c+PGcgdHJhbnNmb3JtPSJ0cmFuc2xhdGUoLTE3NC41NzE4ODQxNTUyNzM0NCwgLTM2KSIgY2xhc3M9Im1lbWJlcnMtZ3JvdXAgdGV4dCI+PGcgdHJhbnNmb3JtPSJ0cmFuc2xhdGUoMCwtMTIpIiBzdHlsZT0iIiBjbGFzcz0ibGFiZWwiPjxmb3JlaWduT2JqZWN0IGhlaWdodD0iMjQiIHdpZHRoPSIyNDMuNDI1MDAzMDUxNzU3OCI+PGRpdiBzdHlsZT0iZGlzcGxheTogdGFibGUtY2VsbDsgd2hpdGUtc3BhY2U6IG5vd3JhcDsgbGluZS1oZWlnaHQ6IDEuNTsgbWF4LXdpZHRoOiAzNDNweDsgdGV4dC1hbGlnbjogY2VudGVyOyIgeG1sbnM9Imh0dHA6Ly93d3cudzMub3JnLzE5OTkveGh0bWwiPjxzcGFuIHN0eWxlPSIiIGNsYXNzPSJub2RlTGFiZWwgbWFya2Rvd24tbm9kZS1sYWJlbCI+PHA+LUxpc3QmbHQ7Q29tbWFuZCZndDsgY29tbWFuZEhpc3Rvcnk8L3A+PC9zcGFuPjwvZGl2PjwvZm9yZWlnbk9iamVjdD48L2c+PGcgdHJhbnNmb3JtPSJ0cmFuc2xhdGUoMCwxMikiIHN0eWxlPSIiIGNsYXNzPSJsYWJlbCI+PGZvcmVpZ25PYmplY3QgaGVpZ2h0PSIyNCIgd2lkdGg9IjE5Mi45MDAwMDkxNTUyNzM0NCI+PGRpdiBzdHlsZT0iZGlzcGxheTogdGFibGUtY2VsbDsgd2hpdGUtc3BhY2U6IG5vd3JhcDsgbGluZS1oZWlnaHQ6IDEuNTsgbWF4LXdpZHRoOiAyNDlweDsgdGV4dC1hbGlnbjogY2VudGVyOyIgeG1sbnM9Imh0dHA6Ly93d3cudzMub3JnLzE5OTkveGh0bWwiPjxzcGFuIHN0eWxlPSIiIGNsYXNzPSJub2RlTGFiZWwgbWFya2Rvd24tbm9kZS1sYWJlbCI+PHA+LWludCBjdXJyZW50Q29tbWFuZEluZGV4PC9wPjwvc3Bhbj48L2Rpdj48L2ZvcmVpZ25PYmplY3Q+PC9nPjwvZz48ZyB0cmFuc2Zvcm09InRyYW5zbGF0ZSgtMTc0LjU3MTg4NDE1NTI3MzQ0LCAzNikiIGNsYXNzPSJtZXRob2RzLWdyb3VwIHRleHQiPjxnIHRyYW5zZm9ybT0idHJhbnNsYXRlKDAsLTEyKSIgc3R5bGU9IiIgY2xhc3M9ImxhYmVsIj48Zm9yZWlnbk9iamVjdCBoZWlnaHQ9IjI0IiB3aWR0aD0iMjkyLjg2MjUxODMxMDU0NjkiPjxkaXYgc3R5bGU9ImRpc3BsYXk6IHRhYmxlLWNlbGw7IHdoaXRlLXNwYWNlOiBub3dyYXA7IGxpbmUtaGVpZ2h0OiAxLjU7IG1heC13aWR0aDogMzU0cHg7IHRleHQtYWxpZ246IGNlbnRlcjsiIHhtbG5zPSJodHRwOi8vd3d3LnczLm9yZy8xOTk5L3hodG1sIj48c3BhbiBzdHlsZT0iIiBjbGFzcz0ibm9kZUxhYmVsIG1hcmtkb3duLW5vZGUtbGFiZWwiPjxwPitleGVjdXRlQ29tbWFuZChDb21tYW5kIGNvbW1hbmQpPC9wPjwvc3Bhbj48L2Rpdj48L2ZvcmVpZ25PYmplY3Q+PC9nPjxnIHRyYW5zZm9ybT0idHJhbnNsYXRlKDAsMTIpIiBzdHlsZT0iIiBjbGFzcz0ibGFiZWwiPjxmb3JlaWduT2JqZWN0IGhlaWdodD0iMjQiIHdpZHRoPSI1NS4xMjUiPjxkaXYgc3R5bGU9ImRpc3BsYXk6IHRhYmxlLWNlbGw7IHdoaXRlLXNwYWNlOiBub3dyYXA7IGxpbmUtaGVpZ2h0OiAxLjU7IG1heC13aWR0aDogMTE0cHg7IHRleHQtYWxpZ246IGNlbnRlcjsiIHhtbG5zPSJodHRwOi8vd3d3LnczLm9yZy8xOTk5L3hodG1sIj48c3BhbiBzdHlsZT0iIiBjbGFzcz0ibm9kZUxhYmVsIG1hcmtkb3duLW5vZGUtbGFiZWwiPjxwPit1bmRvKCk8L3A+PC9zcGFuPjwvZGl2PjwvZm9yZWlnbk9iamVjdD48L2c+PGcgdHJhbnNmb3JtPSJ0cmFuc2xhdGUoMCwzNikiIHN0eWxlPSIiIGNsYXNzPSJsYWJlbCI+PGZvcmVpZ25PYmplY3QgaGVpZ2h0PSIyNCIgd2lkdGg9IjUyLjU4NzUwMTUyNTg3ODkwNiI+PGRpdiBzdHlsZT0iZGlzcGxheTogdGFibGUtY2VsbDsgd2hpdGUtc3BhY2U6IG5vd3JhcDsgbGluZS1oZWlnaHQ6IDEuNTsgbWF4LXdpZHRoOiAxMTBweDsgdGV4dC1hbGlnbjogY2VudGVyOyIgeG1sbnM9Imh0dHA6Ly93d3cudzMub3JnLzE5OTkveGh0bWwiPjxzcGFuIHN0eWxlPSIiIGNsYXNzPSJub2RlTGFiZWwgbWFya2Rvd24tbm9kZS1sYWJlbCI+PHA+K3JlZG8oKTwvcD48L3NwYW4+PC9kaXY+PC9mb3JlaWduT2JqZWN0PjwvZz48L2c+PGcgc3R5bGU9IiIgY2xhc3M9ImRpdmlkZXIiPjxwYXRoIHN0eWxlPSIiIGZpbGw9Im5vbmUiIHN0cm9rZS13aWR0aD0iMS4zIiBzdHJva2U9IiM5OTkiIGQ9Ik0tMTg2LjU3MTg4NDE1NTI3MzQ0IC02MCBDLTExMS40MzU2MjM5NDE0NDM5NSAtNjAsIC0zNi4yOTkzNjM3Mjc2MTQ0NiAtNjAsIDE4Ni41NzE4ODQxNTUyNzM0NCAtNjAgTS0xODYuNTcxODg0MTU1MjczNDQgLTYwIEMtNTIuNTUyNjA2ODMzMjA0MjEgLTYwLCA4MS40NjY2NzA0ODg4NjUwMiAtNjAsIDE4Ni41NzE4ODQxNTUyNzM0NCAtNjAiPjwvcGF0aD48L2c+PGcgc3R5bGU9IiIgY2xhc3M9ImRpdmlkZXIiPjxwYXRoIHN0eWxlPSIiIGZpbGw9Im5vbmUiIHN0cm9rZS13aWR0aD0iMS4zIiBzdHJva2U9IiM5OTkiIGQ9Ik0tMTg2LjU3MTg4NDE1NTI3MzQ0IDEyIEMtNDguNDY0MzU0MDM2MzMwNDYgMTIsIDg5LjY0MzE3NjA4MjYxMjUxIDEyLCAxODYuNTcxODg0MTU1MjczNDQgMTIgTS0xODYuNTcxODg0MTU1MjczNDQgMTIgQy00Ni42MzQ1MTc3MjMyNjc4OSAxMiwgOTMuMzAyODQ4NzA4NzM3NjYgMTIsIDE4Ni41NzE4ODQxNTUyNzM0NCAxMiI+PC9wYXRoPjwvZz48L2c+PC9nPjwvZz48L2c+PC9zdmc+;" vertex="1" parent="1">
                        <mxGeometry x="170" y="-220" width="449.3062744140625" height="1013.2000732421875" as="geometry"/>
                    </mxCell>
                </UserObject>
            </root>
        </mxGraphModel>
    </diagram>
</mxfile>